<svg width="876" height="303" viewBox="0 0 876 303" fill="none" xmlns="http://www.w3.org/2000/svg">
<g filter="url(#filter0_d_1_28)">
<path d="M321.76 161.21L168.31 6V7.63998C168.31 56.07 187.28 102.41 220.86 136.01L373.66 288.92C373.66 240.82 354.94 194.76 321.77 161.21" fill="#EF4151"/>
</g>
<g filter="url(#filter1_d_1_28)">
<path d="M159.96 93.39V101.33C159.96 124.27 142.06 142.87 119.98 142.87H106.89C84.81 142.87 66.91 124.27 66.91 101.33V40.36C66.91 25.47 55.28 13.39 40.95 13.39C26.62 13.39 15 25.47 15 40.36V255.56C15 270.45 26.62 282.53 40.95 282.53C55.28 282.53 66.91 270.46 66.91 255.56V202.36C66.91 179.42 84.81 160.83 106.89 160.83H119.98C142.06 160.83 159.96 179.42 159.96 202.36V255.56C159.96 270.45 171.58 282.53 185.9 282.53C200.22 282.53 211.87 270.46 211.87 255.56V150.13C211.87 150.13 167.54 112.81 159.96 58.91V93.4V93.39Z" fill="#0C5A91"/>
</g>
<g filter="url(#filter2_d_1_28)">
<path d="M381.34 202.53C381.34 179.59 399.24 160.99 421.32 160.99H434.4C456.48 160.99 474.38 179.59 474.38 202.53V255.56C474.38 270.45 486 282.52 500.34 282.52C514.68 282.52 526.29 270.44 526.29 255.56V40.36C526.29 25.47 514.67 13.4 500.34 13.4C486.01 13.4 474.38 25.47 474.38 40.36V101.49C474.38 124.43 456.48 143.04 434.4 143.04H421.32C399.24 143.04 381.34 124.44 381.34 101.49V40.36C381.34 25.47 369.72 13.4 355.4 13.4C341.06 13.4 329.44 25.47 329.44 40.36V144.2C329.44 144.2 376.48 187.54 381.35 238.6V202.53H381.34Z" fill="#0C5A91"/>
</g>
<path d="M604.86 89.08C604.86 89.48 604.71 89.83 604.41 90.13C604.11 90.43 603.76 90.58 603.36 90.58H593.51C593.11 90.58 592.76 90.43 592.46 90.13C592.16 89.83 592.01 89.48 592.01 89.08V67.34H573.43V89.08C573.43 89.48 573.28 89.83 572.98 90.13C572.68 90.43 572.33 90.58 571.93 90.58H562.08C561.68 90.58 561.33 90.43 561.03 90.13C560.73 89.83 560.58 89.48 560.58 89.08V36.13C560.58 35.73 560.73 35.39 561.03 35.11C561.33 34.84 561.68 34.7 562.08 34.7H571.93C572.33 34.7 572.68 34.84 572.98 35.11C573.28 35.39 573.43 35.73 573.43 36.13V56.14H592.01V36.13C592.01 35.73 592.16 35.39 592.46 35.11C592.76 34.84 593.11 34.7 593.51 34.7H603.36C603.76 34.7 604.11 34.84 604.41 35.11C604.71 35.39 604.86 35.73 604.86 36.13V89.08Z" fill="white"/>
<path d="M681.58 89.38C681.58 90.18 681.15 90.58 680.3 90.58H669.77C669.37 90.58 669.04 90.45 668.79 90.2C668.54 89.95 668.36 89.62 668.26 89.22L665.55 76.88H650.13L647.42 89.22C647.32 89.62 647.14 89.95 646.89 90.2C646.64 90.45 646.31 90.58 645.91 90.58H635.38C634.53 90.58 634.1 90.18 634.1 89.38C634.1 89.33 634.11 89.28 634.14 89.23C634.17 89.18 634.18 89.1 634.18 89L645.39 42.37C645.84 40.56 646.49 39.11 647.34 38.01C648.19 36.91 649.18 36.07 650.31 35.49C651.44 34.91 652.65 34.53 653.96 34.32C655.26 34.12 656.56 34.02 657.87 34.02C659.18 34.02 660.46 34.12 661.74 34.32C663.02 34.52 664.22 34.91 665.35 35.49C666.48 36.07 667.47 36.91 668.32 38.01C669.17 39.11 669.83 40.57 670.28 42.37L681.49 89C681.49 89.1 681.5 89.17 681.53 89.23C681.55 89.28 681.57 89.33 681.57 89.38M658.86 45.83C658.76 45.43 658.66 45.14 658.56 44.96C658.46 44.79 658.23 44.7 657.88 44.7C657.33 44.7 656.98 45.08 656.83 45.83L652.24 66.59H663.45L658.86 45.83Z" fill="white"/>
<path d="M746.94 35.83C746.94 36.08 746.91 36.26 746.87 36.36L735.51 62.39C734.76 64.15 733.98 65.45 733.18 66.3C732.38 67.15 731.53 67.78 730.63 68.18V89.09C730.63 89.49 730.48 89.84 730.18 90.14C729.88 90.44 729.53 90.59 729.13 90.59H719.28C718.88 90.59 718.53 90.44 718.23 90.14C717.93 89.84 717.78 89.49 717.78 89.09V68.18C716.88 67.78 716.01 67.15 715.18 66.3C714.35 65.45 713.57 64.15 712.81 62.39L701.45 36.36C701.4 36.26 701.37 36.09 701.37 35.83C701.37 35.53 701.47 35.27 701.67 35.04C701.87 34.81 702.17 34.7 702.57 34.7H713.4C713.8 34.7 714.12 34.83 714.38 35.08C714.63 35.33 714.81 35.63 714.91 35.98L723.03 57.19C723.23 57.69 723.4 58.01 723.56 58.13C723.71 58.26 723.91 58.32 724.16 58.32C724.41 58.32 724.61 58.26 724.76 58.13C724.91 58 725.09 57.69 725.29 57.19L733.41 35.98C733.51 35.63 733.68 35.33 733.94 35.08C734.19 34.83 734.52 34.7 734.91 34.7H745.74C746.14 34.7 746.44 34.81 746.64 35.04C746.84 35.26 746.94 35.53 746.94 35.83Z" fill="white"/>
<path d="M814.25 89.38C814.25 90.18 813.82 90.58 812.97 90.58H802.44C802.04 90.58 801.71 90.45 801.46 90.2C801.21 89.95 801.03 89.62 800.93 89.22L798.22 76.88H782.8L780.09 89.22C779.99 89.62 779.81 89.95 779.56 90.2C779.31 90.45 778.98 90.58 778.58 90.58H768.05C767.2 90.58 766.77 90.18 766.77 89.38C766.77 89.33 766.78 89.28 766.81 89.23C766.84 89.18 766.85 89.1 766.85 89L778.06 42.37C778.51 40.56 779.16 39.11 780.01 38.01C780.86 36.91 781.85 36.07 782.98 35.49C784.11 34.91 785.32 34.53 786.63 34.32C787.93 34.12 789.23 34.02 790.54 34.02C791.85 34.02 793.13 34.12 794.41 34.32C795.69 34.52 796.89 34.91 798.02 35.49C799.15 36.07 800.14 36.91 800.99 38.01C801.84 39.11 802.5 40.57 802.95 42.37L814.16 89C814.16 89.1 814.17 89.17 814.2 89.23C814.22 89.28 814.24 89.33 814.24 89.38M791.54 45.83C791.44 45.43 791.34 45.14 791.24 44.96C791.14 44.79 790.91 44.7 790.56 44.7C790.01 44.7 789.66 45.08 789.51 45.83L784.92 66.59H796.13L791.54 45.83Z" fill="white"/>
<path d="M875.25 43.88C875.25 44.28 875.09 44.62 874.76 44.9C874.43 45.17 874.07 45.31 873.67 45.31H861.49V89.08C861.49 89.48 861.34 89.83 861.04 90.13C860.74 90.43 860.39 90.58 859.99 90.58H850.14C849.74 90.58 849.39 90.43 849.09 90.13C848.79 89.83 848.64 89.48 848.64 89.08V45.31H836.38C835.98 45.31 835.63 45.17 835.33 44.9C835.03 44.62 834.88 44.29 834.88 43.88V36.13C834.88 35.73 835.03 35.39 835.33 35.11C835.63 34.84 835.98 34.7 836.38 34.7H873.69C874.09 34.7 874.45 34.84 874.78 35.11C875.11 35.39 875.27 35.73 875.27 36.13V43.88H875.25Z" fill="white"/>
<path d="M602.15 166.6C602.15 167.36 601.88 167.99 601.33 168.51C600.79 169.03 600.14 169.29 599.38 169.29H592.44C591.68 169.29 591.02 169.16 590.46 168.9C589.89 168.64 589.33 168.04 588.76 167.09L572.6 139.17C572.36 138.79 572.15 138.6 571.96 138.6C571.72 138.6 571.61 138.79 571.61 139.17V167.87C571.61 168.25 571.47 168.58 571.18 168.86C570.9 169.14 570.57 169.28 570.19 169.28H561.83C561.45 169.28 561.12 169.14 560.84 168.86C560.56 168.58 560.42 168.25 560.42 167.87V119.33C560.42 118.57 560.68 117.94 561.2 117.42C561.72 116.9 562.36 116.64 563.11 116.64H570.27C570.98 116.64 571.55 116.82 571.97 117.17C572.4 117.52 572.82 118.08 573.25 118.83L590.05 148.03C590.28 148.41 590.47 148.6 590.62 148.6C590.86 148.6 590.97 148.39 590.97 147.96V117.99C590.97 117.61 591.11 117.29 591.4 117.03C591.68 116.77 592.01 116.64 592.39 116.64H600.75C601.13 116.64 601.46 116.77 601.74 117.03C602.02 117.29 602.17 117.61 602.17 117.99V166.6H602.15Z" fill="white"/>
<path d="M647.64 167.87C647.64 168.25 647.5 168.58 647.21 168.86C646.93 169.14 646.59 169.28 646.22 169.28H638.28C637.9 169.28 637.57 169.14 637.29 168.86C637.01 168.58 636.86 168.25 636.86 167.87V166.74C635.49 167.73 634.04 168.51 632.5 169.08C630.96 169.65 629.13 169.93 627.01 169.93C625.45 169.93 623.95 169.73 622.51 169.33C621.07 168.93 619.78 168.26 618.65 167.31C617.52 166.37 616.61 165.11 615.92 163.55C615.23 161.99 614.89 160.06 614.89 157.74V157.1C614.89 152.94 616.27 149.91 619.04 147.99C621.8 146.08 626.23 145.12 632.33 145.12H636.16V142.57C636.16 140.54 635.69 139.22 634.74 138.6C633.79 137.99 632.49 137.68 630.84 137.68C629.71 137.68 628.56 137.69 627.4 137.72C626.24 137.74 625.13 137.78 624.07 137.83C623.01 137.88 622.05 137.94 621.2 138.01C620.35 138.08 619.64 138.14 619.08 138.19H618.72C618.34 138.19 618.03 138.1 617.8 137.91C617.56 137.72 617.44 137.39 617.44 136.92V131.18C617.44 130.38 617.89 129.86 618.79 129.62C620.11 129.29 621.89 128.96 624.14 128.63C626.38 128.3 628.68 128.13 631.05 128.13C633.6 128.13 635.91 128.4 637.96 128.95C640.01 129.49 641.75 130.34 643.17 131.5C644.59 132.66 645.69 134.15 646.47 135.96C647.25 137.78 647.64 139.99 647.64 142.58V167.88V167.87ZM636.37 151.93H632.33C631.1 151.93 630.09 152.04 629.29 152.25C628.48 152.46 627.85 152.78 627.38 153.2C626.91 153.63 626.58 154.17 626.39 154.83C626.2 155.49 626.11 156.25 626.11 157.1V157.74C626.11 159.25 626.48 160.22 627.21 160.65C627.94 161.08 629.06 161.29 630.58 161.29C631.67 161.29 632.69 161.14 633.66 160.83C634.63 160.52 635.54 160.16 636.39 159.73V151.94L636.37 151.93Z" fill="white"/>
<path d="M682.79 167.96C682.79 168.76 682.34 169.22 681.44 169.36C680.35 169.55 679.41 169.69 678.61 169.78C677.8 169.87 676.88 169.92 675.85 169.92C673.92 169.92 672.22 169.77 670.74 169.46C669.26 169.15 668.03 168.55 667.04 167.65C666.05 166.75 665.3 165.51 664.79 163.93C664.27 162.35 664.02 160.3 664.02 157.8V137.25L658.35 136.33C657.97 136.24 657.63 136.06 657.32 135.8C657.01 135.54 656.86 135.22 656.86 134.84V130.16C656.86 129.78 657.01 129.44 657.32 129.13C657.63 128.82 657.97 128.67 658.35 128.67H664.02V122.86C664.02 122.48 664.16 122.18 664.44 121.94C664.72 121.7 665.05 121.54 665.43 121.44L674.02 119.95H674.23C674.6 119.95 674.91 120.06 675.15 120.27C675.39 120.48 675.5 120.78 675.5 121.16V128.67H681.31C681.69 128.67 682.02 128.81 682.3 129.1C682.58 129.39 682.72 129.72 682.72 130.1V135.88C682.72 136.26 682.58 136.6 682.3 136.88C682.02 137.17 681.68 137.31 681.31 137.31H675.5V157.93C675.5 159.35 675.62 160.26 675.86 160.66C676.09 161.06 676.76 161.26 677.84 161.26H681.31C682.3 161.26 682.8 161.66 682.8 162.45V167.93L682.79 167.96Z" fill="white"/>
<path d="M706.32 122.66C706.32 123.04 706.18 123.37 705.89 123.65C705.61 123.93 705.27 124.07 704.9 124.07H695.69C695.31 124.07 694.98 123.93 694.7 123.65C694.42 123.37 694.27 123.03 694.27 122.66V116.07C694.27 115.69 694.41 115.36 694.7 115.08C694.98 114.8 695.31 114.65 695.69 114.65H704.9C705.28 114.65 705.61 114.79 705.89 115.08C706.17 115.36 706.32 115.69 706.32 116.07V122.66ZM706.03 167.87C706.03 168.25 705.89 168.58 705.6 168.86C705.32 169.14 704.99 169.28 704.61 169.28H695.97C695.59 169.28 695.26 169.14 694.98 168.86C694.7 168.58 694.56 168.25 694.56 167.87V130.1C694.56 129.72 694.7 129.39 694.98 129.11C695.26 128.83 695.59 128.69 695.97 128.69H704.61C704.99 128.69 705.32 128.83 705.6 129.11C705.88 129.39 706.03 129.73 706.03 130.1V167.87Z" fill="white"/>
<path d="M754.22 151.5C754.22 154.33 753.83 156.89 753.05 159.15C752.27 161.42 751.13 163.34 749.64 164.93C748.15 166.51 746.3 167.74 744.1 168.61C741.9 169.48 739.36 169.92 736.47 169.92C733.58 169.92 731.04 169.48 728.84 168.61C726.64 167.73 724.78 166.51 723.27 164.93C721.76 163.35 720.61 161.42 719.83 159.15C719.05 156.88 718.66 154.33 718.66 151.5V146.54C718.66 143.71 719.05 141.15 719.83 138.89C720.61 136.62 721.76 134.7 723.27 133.12C724.78 131.54 726.64 130.31 728.84 129.44C731.04 128.57 733.58 128.13 736.47 128.13C739.36 128.13 741.9 128.57 744.1 129.44C746.3 130.31 748.15 131.54 749.64 133.12C751.13 134.7 752.27 136.63 753.05 138.89C753.83 141.16 754.22 143.71 754.22 146.54V151.5ZM742.74 146.54C742.74 140.78 740.65 137.9 736.47 137.9C734.41 137.9 732.83 138.62 731.75 140.06C730.67 141.5 730.13 143.66 730.13 146.54V151.5C730.13 154.38 730.67 156.55 731.75 158.02C732.83 159.49 734.4 160.22 736.47 160.22C740.65 160.22 742.74 157.32 742.74 151.5V146.54Z" fill="white"/>
<path d="M801.34 167.8C801.34 168.18 801.19 168.52 800.88 168.83C800.57 169.14 800.23 169.29 799.85 169.29H791.28C790.9 169.29 790.57 169.14 790.29 168.83C790.01 168.52 789.87 168.18 789.87 167.8V144.26C789.87 143.03 789.8 142 789.66 141.15C789.52 140.3 789.26 139.62 788.88 139.1C788.5 138.58 787.97 138.22 787.28 138.01C786.6 137.8 785.71 137.69 784.62 137.69C783.53 137.69 782.52 137.9 781.43 138.33C780.34 138.75 779.19 139.29 777.96 139.96V167.82C777.96 168.2 777.82 168.54 777.54 168.85C777.26 169.16 776.92 169.31 776.55 169.31H767.98C767.6 169.31 767.26 169.16 766.95 168.85C766.64 168.54 766.49 168.2 766.49 167.82V130.12C766.49 129.74 766.63 129.41 766.91 129.13C767.19 128.85 767.52 128.7 767.9 128.7H775.84C776.22 128.7 776.55 128.85 776.83 129.13C777.11 129.42 777.25 129.75 777.25 130.13V131.85C779.19 130.47 781.03 129.51 782.78 128.96C784.53 128.41 786.53 128.14 788.8 128.14C791.35 128.14 793.44 128.56 795.07 129.41C796.7 130.26 797.97 131.41 798.89 132.85C799.81 134.29 800.45 135.99 800.81 137.95C801.16 139.91 801.34 142 801.34 144.22V167.82V167.8Z" fill="white"/>
<path d="M846.13 167.87C846.13 168.25 845.99 168.58 845.7 168.86C845.42 169.14 845.08 169.28 844.71 169.28H836.77C836.39 169.28 836.06 169.14 835.78 168.86C835.5 168.58 835.35 168.25 835.35 167.87V166.74C833.98 167.73 832.53 168.51 830.99 169.08C829.45 169.65 827.62 169.93 825.5 169.93C823.94 169.93 822.44 169.73 821 169.33C819.56 168.93 818.27 168.26 817.14 167.31C816.01 166.37 815.1 165.11 814.41 163.55C813.72 161.99 813.38 160.06 813.38 157.74V157.1C813.38 152.94 814.76 149.91 817.53 147.99C820.29 146.08 824.72 145.12 830.82 145.12H834.65V142.57C834.65 140.54 834.18 139.22 833.23 138.6C832.28 137.99 830.98 137.68 829.33 137.68C828.2 137.68 827.05 137.69 825.89 137.72C824.73 137.74 823.62 137.78 822.56 137.83C821.5 137.88 820.54 137.94 819.69 138.01C818.84 138.08 818.13 138.14 817.57 138.19H817.21C816.83 138.19 816.52 138.1 816.29 137.91C816.05 137.72 815.93 137.39 815.93 136.92V131.18C815.93 130.38 816.38 129.86 817.28 129.62C818.6 129.29 820.38 128.96 822.63 128.63C824.87 128.3 827.17 128.13 829.54 128.13C832.09 128.13 834.4 128.4 836.45 128.95C838.5 129.49 840.24 130.34 841.66 131.5C843.08 132.66 844.18 134.15 844.96 135.96C845.74 137.78 846.13 139.99 846.13 142.58V167.88V167.87ZM834.86 151.93H830.82C829.59 151.93 828.58 152.04 827.78 152.25C826.97 152.46 826.34 152.78 825.87 153.2C825.4 153.63 825.07 154.17 824.88 154.83C824.69 155.49 824.6 156.25 824.6 157.1V157.74C824.6 159.25 824.97 160.22 825.7 160.65C826.43 161.08 827.55 161.29 829.07 161.29C830.16 161.29 831.18 161.14 832.15 160.83C833.12 160.52 834.03 160.16 834.88 159.73V151.94L834.86 151.93Z" fill="white"/>
<path d="M871.07 167.8C871.07 168.18 870.94 168.52 870.68 168.83C870.42 169.14 870.1 169.29 869.72 169.29H861.08C860.7 169.29 860.36 169.14 860.05 168.83C859.74 168.52 859.59 168.18 859.59 167.8V116.35C859.59 115.97 859.74 115.64 860.05 115.36C860.36 115.08 860.7 114.94 861.08 114.94H869.72C870.1 114.94 870.42 115.08 870.68 115.36C870.94 115.64 871.07 115.98 871.07 116.35V167.8Z" fill="white"/>
<path d="M602.15 246.66C602.15 247.04 602.01 247.37 601.72 247.65C601.44 247.93 601.11 248.07 600.73 248.07H591.45C591.07 248.07 590.74 247.93 590.46 247.65C590.18 247.37 590.04 247.04 590.04 246.66V226.18H572.54V246.66C572.54 247.04 572.4 247.37 572.11 247.65C571.83 247.93 571.49 248.07 571.12 248.07H561.84C561.46 248.07 561.13 247.93 560.85 247.65C560.57 247.37 560.43 247.04 560.43 246.66V196.77C560.43 196.39 560.57 196.07 560.85 195.81C561.13 195.55 561.47 195.42 561.84 195.42H571.12C571.5 195.42 571.83 195.55 572.11 195.81C572.39 196.07 572.54 196.39 572.54 196.77V215.62H590.04V196.77C590.04 196.39 590.18 196.07 590.46 195.81C590.74 195.55 591.08 195.42 591.45 195.42H600.73C601.11 195.42 601.44 195.55 601.72 195.81C602 196.07 602.15 196.39 602.15 196.77V246.66Z" fill="white"/>
<path d="M646.51 230.3C646.51 233.13 646.12 235.69 645.34 237.95C644.56 240.22 643.42 242.14 641.93 243.73C640.44 245.31 638.59 246.54 636.39 247.41C634.19 248.28 631.65 248.72 628.76 248.72C625.87 248.72 623.33 248.28 621.13 247.41C618.93 246.54 617.07 245.31 615.56 243.73C614.05 242.15 612.9 240.22 612.12 237.95C611.34 235.68 610.95 233.13 610.95 230.3V225.34C610.95 222.51 611.34 219.95 612.12 217.69C612.9 215.42 614.05 213.5 615.56 211.92C617.07 210.34 618.93 209.11 621.13 208.23C623.33 207.36 625.87 206.92 628.76 206.92C631.65 206.92 634.19 207.36 636.39 208.23C638.59 209.11 640.44 210.34 641.93 211.92C643.42 213.51 644.56 215.43 645.34 217.69C646.12 219.96 646.51 222.51 646.51 225.34V230.3ZM635.03 225.34C635.03 219.58 632.94 216.7 628.76 216.7C626.7 216.7 625.12 217.42 624.04 218.86C622.96 220.3 622.42 222.46 622.42 225.34V230.3C622.42 233.18 622.96 235.35 624.04 236.82C625.12 238.29 626.69 239.02 628.76 239.02C632.94 239.02 635.03 236.12 635.03 230.3V225.34Z" fill="white"/>
<path d="M682.86 236.81C682.86 238.46 682.55 240.02 681.94 241.49C681.33 242.95 680.4 244.22 679.15 245.28C677.9 246.34 676.33 247.18 674.45 247.79C672.57 248.4 670.33 248.71 667.73 248.71C666.74 248.71 665.69 248.67 664.58 248.6C663.47 248.53 662.34 248.42 661.19 248.28C660.03 248.14 658.92 247.97 657.83 247.78C656.75 247.59 655.76 247.38 654.86 247.14C653.96 246.9 653.52 246.36 653.52 245.51V239.77C653.52 239.39 653.64 239.07 653.87 238.81C654.11 238.55 654.44 238.42 654.86 238.42H655.14C656.08 238.56 657.14 238.69 658.29 238.81C659.44 238.93 660.59 239.03 661.73 239.13C662.86 239.22 663.91 239.3 664.88 239.34C665.85 239.39 666.61 239.41 667.18 239.41C668.88 239.41 670 239.19 670.55 238.74C671.09 238.29 671.37 237.6 671.37 236.65C671.37 236.13 671.18 235.65 670.8 235.2C670.42 234.75 669.74 234.25 668.75 233.68L659.54 228.36C657.56 227.23 656.01 225.77 654.9 224C653.79 222.23 653.24 220.18 653.24 217.87C653.24 214.28 654.42 211.55 656.79 209.69C659.16 207.83 662.8 206.89 667.69 206.89C670.48 206.89 672.83 207.05 674.74 207.35C676.65 207.66 678.51 208.05 680.3 208.52C681.2 208.76 681.65 209.3 681.65 210.15V215.89C681.65 216.79 681.25 217.24 680.45 217.24H680.24C679.72 217.19 678.99 217.11 678.04 216.99C677.09 216.87 676.07 216.77 674.96 216.67C673.85 216.57 672.72 216.49 671.56 216.42C670.4 216.35 669.38 216.31 668.48 216.31C667.11 216.31 666.14 216.45 665.58 216.73C665.01 217.01 664.73 217.56 664.73 218.36C664.73 218.88 664.92 219.31 665.3 219.67C665.68 220.02 666.22 220.41 666.93 220.84L675.72 225.87C677.18 226.72 678.38 227.58 679.3 228.46C680.22 229.33 680.95 230.23 681.5 231.15C682.04 232.07 682.41 233 682.6 233.95C682.79 234.9 682.88 235.84 682.88 236.78" fill="white"/>
<path d="M725.95 230.58C725.95 236.16 724.49 240.57 721.56 243.83C718.63 247.09 714.17 248.72 708.17 248.72C707.46 248.72 706.58 248.67 705.51 248.58C704.45 248.49 703.4 248.37 702.36 248.23V260.49C702.36 260.87 702.22 261.2 701.94 261.48C701.66 261.76 701.32 261.9 700.95 261.9H692.38C692 261.9 691.66 261.76 691.35 261.48C691.04 261.2 690.89 260.87 690.89 260.49V210.81C690.89 210.24 691.02 209.82 691.28 209.54C691.54 209.26 692.14 209 693.09 208.76C695.12 208.24 697.46 207.81 700.11 207.45C702.75 207.1 705.45 206.92 708.19 206.92C713.95 206.92 718.36 208.5 721.41 211.67C724.46 214.84 725.98 219.3 725.98 225.06V230.59L725.95 230.58ZM714.47 225.1C714.47 223.83 714.37 222.68 714.19 221.64C714 220.61 713.67 219.7 713.2 218.92C712.73 218.14 712.09 217.54 711.29 217.12C710.49 216.7 709.45 216.48 708.17 216.48C706.99 216.48 705.89 216.52 704.88 216.59C703.86 216.66 703.03 216.74 702.36 216.84V238.88C703.21 238.98 704.18 239.07 705.27 239.16C706.35 239.26 707.32 239.3 708.17 239.3C709.45 239.3 710.48 239.08 711.29 238.63C712.1 238.18 712.73 237.57 713.2 236.79C713.67 236.01 714 235.09 714.19 234.03C714.38 232.97 714.47 231.83 714.47 230.6V225.09V225.1Z" fill="white"/>
<path d="M745.93 201.45C745.93 201.83 745.79 202.16 745.5 202.44C745.22 202.72 744.88 202.86 744.51 202.86H735.3C734.92 202.86 734.59 202.72 734.31 202.44C734.03 202.16 733.88 201.83 733.88 201.45V194.86C733.88 194.48 734.02 194.15 734.31 193.87C734.59 193.59 734.92 193.45 735.3 193.45H744.51C744.89 193.45 745.22 193.59 745.5 193.87C745.78 194.15 745.93 194.49 745.93 194.86V201.45ZM745.64 246.66C745.64 247.04 745.5 247.37 745.21 247.65C744.93 247.93 744.6 248.07 744.22 248.07H735.58C735.2 248.07 734.87 247.93 734.59 247.65C734.31 247.37 734.17 247.04 734.17 246.66V208.89C734.17 208.51 734.31 208.18 734.59 207.9C734.87 207.62 735.2 207.48 735.58 207.48H744.22C744.6 207.48 744.93 207.62 745.21 207.9C745.49 208.18 745.64 208.52 745.64 208.89V246.66Z" fill="white"/>
<path d="M778.45 246.75C778.45 247.55 778 248.01 777.1 248.15C776.01 248.34 775.07 248.48 774.27 248.57C773.46 248.66 772.54 248.71 771.51 248.71C769.58 248.71 767.88 248.56 766.4 248.25C764.92 247.94 763.69 247.34 762.7 246.44C761.71 245.54 760.96 244.3 760.45 242.72C759.93 241.14 759.68 239.09 759.68 236.59V216.04L754.01 215.12C753.63 215.03 753.29 214.85 752.98 214.59C752.67 214.33 752.52 214.01 752.52 213.63V208.96C752.52 208.58 752.67 208.24 752.98 207.93C753.29 207.62 753.63 207.47 754.01 207.47H759.68V201.66C759.68 201.28 759.82 200.98 760.1 200.74C760.38 200.5 760.71 200.34 761.09 200.24L769.68 198.75H769.89C770.26 198.75 770.57 198.86 770.81 199.07C771.04 199.28 771.16 199.58 771.16 199.96V207.47H776.97C777.35 207.47 777.68 207.61 777.96 207.9C778.24 208.19 778.38 208.52 778.38 208.9V214.69C778.38 215.07 778.24 215.4 777.96 215.69C777.68 215.98 777.34 216.12 776.97 216.12H771.16V236.74C771.16 238.16 771.28 239.07 771.52 239.47C771.75 239.87 772.42 240.07 773.5 240.07H776.97C777.96 240.07 778.46 240.47 778.46 241.26V246.74L778.45 246.75Z" fill="white"/>
<path d="M817 246.66C817 247.04 816.86 247.37 816.57 247.65C816.29 247.93 815.95 248.07 815.58 248.07H807.64C807.26 248.07 806.93 247.93 806.65 247.65C806.37 247.37 806.22 247.04 806.22 246.66V245.53C804.85 246.52 803.4 247.3 801.86 247.87C800.32 248.44 798.49 248.72 796.37 248.72C794.81 248.72 793.31 248.52 791.87 248.12C790.43 247.72 789.14 247.05 788.01 246.1C786.88 245.16 785.97 243.9 785.28 242.34C784.59 240.78 784.25 238.85 784.25 236.53V235.89C784.25 231.73 785.63 228.7 788.4 226.79C791.16 224.87 795.59 223.92 801.69 223.92H805.52V221.37C805.52 219.34 805.05 218.01 804.1 217.4C803.15 216.79 801.85 216.48 800.2 216.48C799.07 216.48 797.92 216.49 796.76 216.52C795.6 216.54 794.49 216.58 793.43 216.62C792.37 216.67 791.41 216.73 790.56 216.8C789.71 216.87 789 216.93 788.44 216.98H788.08C787.7 216.98 787.39 216.89 787.16 216.7C786.92 216.51 786.8 216.18 786.8 215.71V209.97C786.8 209.17 787.25 208.65 788.15 208.41C789.47 208.08 791.25 207.75 793.5 207.42C795.74 207.09 798.04 206.92 800.41 206.92C802.96 206.92 805.27 207.19 807.32 207.74C809.37 208.28 811.11 209.13 812.53 210.29C813.95 211.45 815.05 212.94 815.83 214.76C816.61 216.58 817 218.79 817 221.39V246.69V246.66ZM805.74 230.72H801.7C800.47 230.72 799.46 230.83 798.66 231.04C797.85 231.25 797.22 231.57 796.75 231.99C796.28 232.42 795.95 232.96 795.76 233.62C795.57 234.28 795.48 235.04 795.48 235.89V236.53C795.48 238.04 795.85 239.01 796.58 239.44C797.31 239.87 798.44 240.08 799.95 240.08C801.04 240.08 802.06 239.93 803.03 239.62C804 239.31 804.91 238.95 805.76 238.52V230.73L805.74 230.72Z" fill="white"/>
<path d="M837.7 246.6C837.7 246.98 837.57 247.32 837.31 247.63C837.05 247.94 836.73 248.09 836.35 248.09H827.71C827.33 248.09 826.99 247.94 826.68 247.63C826.37 247.32 826.22 246.98 826.22 246.6V195.15C826.22 194.77 826.37 194.44 826.68 194.16C826.99 193.88 827.33 193.73 827.71 193.73H836.35C836.73 193.73 837.05 193.87 837.31 194.16C837.57 194.44 837.7 194.78 837.7 195.15V246.6Z" fill="white"/>
<path d="M875.25 236.81C875.25 238.46 874.94 240.02 874.33 241.49C873.72 242.95 872.79 244.22 871.54 245.28C870.29 246.34 868.72 247.18 866.84 247.79C864.96 248.4 862.72 248.71 860.12 248.71C859.13 248.71 858.08 248.67 856.97 248.6C855.86 248.53 854.73 248.42 853.58 248.28C852.42 248.14 851.31 247.97 850.22 247.78C849.14 247.59 848.15 247.38 847.25 247.14C846.35 246.9 845.91 246.36 845.91 245.51V239.77C845.91 239.39 846.03 239.07 846.26 238.81C846.5 238.55 846.83 238.42 847.25 238.42H847.53C848.47 238.56 849.53 238.69 850.68 238.81C851.83 238.93 852.98 239.03 854.12 239.13C855.25 239.22 856.3 239.3 857.27 239.34C858.24 239.39 859 239.41 859.57 239.41C861.27 239.41 862.39 239.19 862.94 238.74C863.48 238.29 863.76 237.6 863.76 236.65C863.76 236.13 863.57 235.65 863.19 235.2C862.81 234.75 862.13 234.25 861.14 233.68L851.93 228.36C849.95 227.23 848.4 225.77 847.29 224C846.18 222.23 845.63 220.18 845.63 217.87C845.63 214.28 846.81 211.55 849.18 209.69C851.55 207.83 855.19 206.89 860.08 206.89C862.87 206.89 865.22 207.05 867.13 207.35C869.04 207.66 870.9 208.05 872.69 208.52C873.59 208.76 874.03 209.3 874.03 210.15V215.89C874.03 216.79 873.63 217.24 872.83 217.24H872.62C872.1 217.19 871.37 217.11 870.42 216.99C869.47 216.87 868.45 216.77 867.34 216.67C866.23 216.57 865.1 216.49 863.94 216.42C862.78 216.35 861.76 216.31 860.86 216.31C859.49 216.31 858.52 216.45 857.96 216.73C857.39 217.01 857.11 217.56 857.11 218.36C857.11 218.88 857.3 219.31 857.68 219.67C858.06 220.02 858.6 220.41 859.31 220.84L868.1 225.87C869.56 226.72 870.76 227.58 871.68 228.46C872.6 229.33 873.33 230.23 873.88 231.15C874.42 232.07 874.79 233 874.98 233.95C875.17 234.9 875.26 235.84 875.26 236.78" fill="white"/>
<defs>
<filter id="filter0_d_1_28" x="153.31" y="0" width="225.35" height="302.92" filterUnits="userSpaceOnUse" color-interpolation-filters="sRGB">
<feFlood flood-opacity="0" result="BackgroundImageFix"/>
<feColorMatrix in="SourceAlpha" type="matrix" values="0 0 0 0 0 0 0 0 0 0 0 0 0 0 0 0 0 0 127 0" result="hardAlpha"/>
<feOffset dx="-5" dy="4"/>
<feGaussianBlur stdDeviation="5"/>
<feComposite in2="hardAlpha" operator="out"/>
<feColorMatrix type="matrix" values="0 0 0 0 1 0 0 0 0 1 0 0 0 0 1 0 0 0 0.5 0"/>
<feBlend mode="normal" in2="BackgroundImageFix" result="effect1_dropShadow_1_28"/>
<feBlend mode="normal" in="SourceGraphic" in2="effect1_dropShadow_1_28" result="shape"/>
</filter>
<filter id="filter1_d_1_28" x="0" y="7.38998" width="216.87" height="289.14" filterUnits="userSpaceOnUse" color-interpolation-filters="sRGB">
<feFlood flood-opacity="0" result="BackgroundImageFix"/>
<feColorMatrix in="SourceAlpha" type="matrix" values="0 0 0 0 0 0 0 0 0 0 0 0 0 0 0 0 0 0 127 0" result="hardAlpha"/>
<feOffset dx="-5" dy="4"/>
<feGaussianBlur stdDeviation="5"/>
<feComposite in2="hardAlpha" operator="out"/>
<feColorMatrix type="matrix" values="0 0 0 0 1 0 0 0 0 1 0 0 0 0 1 0 0 0 0.5 0"/>
<feBlend mode="normal" in2="BackgroundImageFix" result="effect1_dropShadow_1_28"/>
<feBlend mode="normal" in="SourceGraphic" in2="effect1_dropShadow_1_28" result="shape"/>
</filter>
<filter id="filter2_d_1_28" x="314.44" y="7.39999" width="216.85" height="289.12" filterUnits="userSpaceOnUse" color-interpolation-filters="sRGB">
<feFlood flood-opacity="0" result="BackgroundImageFix"/>
<feColorMatrix in="SourceAlpha" type="matrix" values="0 0 0 0 0 0 0 0 0 0 0 0 0 0 0 0 0 0 127 0" result="hardAlpha"/>
<feOffset dx="-5" dy="4"/>
<feGaussianBlur stdDeviation="5"/>
<feComposite in2="hardAlpha" operator="out"/>
<feColorMatrix type="matrix" values="0 0 0 0 1 0 0 0 0 1 0 0 0 0 1 0 0 0 0.5 0"/>
<feBlend mode="normal" in2="BackgroundImageFix" result="effect1_dropShadow_1_28"/>
<feBlend mode="normal" in="SourceGraphic" in2="effect1_dropShadow_1_28" result="shape"/>
</filter>
</defs>
</svg>
